<svg preserveAspectRatio="none" width="100%" height="100%" overflow="visible" style="display: block;" viewBox="0 0 18.3379 18.3356" fill="none" xmlns="http://www.w3.org/2000/svg">
<path id="Vector" d="M9.16896 0C8.71063 0 8.25229 0.174167 7.87646 0.540833L4.85146 3.55667L9.16896 7.865L13.4865 3.55667L10.4615 0.540833C10.0856 0.174167 9.62729 0 9.16896 0ZM3.55896 4.84917L0.543125 7.87417C-0.181042 8.58917 -0.181042 9.74417 0.543125 10.4592L3.55896 13.4842L7.86729 9.16667L3.55896 4.84917ZM14.779 4.84917L10.4706 9.16667L14.779 13.4842L17.7948 10.4592C18.519 9.74417 18.519 8.58917 17.7948 7.87417L14.779 4.84917ZM9.16896 10.4683L4.85146 14.7767L7.87646 17.7925C8.59146 18.5167 9.74646 18.5167 10.4615 17.7925L13.4865 14.7767L9.16896 10.4683Z" fill="#FFFFFF"/>
</svg>

